<mxfile host="app.diagrams.net" modified="2024-01-15T09:36:47.559Z" agent="Mozilla/5.0 (Windows NT 10.0; Win64; x64) AppleWebKit/537.36 (KHTML, like Gecko) Chrome/120.0.0.0 Safari/537.36" etag="afNjLLvqY5TjHl-KfTSP" version="22.1.18" type="github">
  <diagram id="R2lEEEUBdFMjLlhIrx00" name="Page-1">
    <mxGraphModel dx="1562" dy="891" grid="1" gridSize="10" guides="1" tooltips="1" connect="1" arrows="1" fold="1" page="1" pageScale="1" pageWidth="850" pageHeight="1100" math="0" shadow="0" extFonts="Permanent Marker^https://fonts.googleapis.com/css?family=Permanent+Marker">
      <root>
        <mxCell id="0" />
        <mxCell id="1" parent="0" />
        <mxCell id="zZhm9E_2jFgNcmyxIRVF-1" value="Product&lt;br&gt;" style="rounded=1;whiteSpace=wrap;html=1;fillColor=#dae8fc;strokeColor=#6c8ebf;" vertex="1" parent="1">
          <mxGeometry x="305" y="310" width="120" height="60" as="geometry" />
        </mxCell>
        <mxCell id="zZhm9E_2jFgNcmyxIRVF-2" value="DVD" style="rounded=1;whiteSpace=wrap;html=1;fillColor=#dae8fc;strokeColor=#6c8ebf;" vertex="1" parent="1">
          <mxGeometry x="380" y="430" width="120" height="60" as="geometry" />
        </mxCell>
        <mxCell id="zZhm9E_2jFgNcmyxIRVF-3" value="LP" style="rounded=1;whiteSpace=wrap;html=1;fillColor=#dae8fc;strokeColor=#6c8ebf;" vertex="1" parent="1">
          <mxGeometry x="520" y="320" width="120" height="60" as="geometry" />
        </mxCell>
        <mxCell id="zZhm9E_2jFgNcmyxIRVF-4" value="CD" style="rounded=1;whiteSpace=wrap;html=1;fillColor=#dae8fc;strokeColor=#6c8ebf;" vertex="1" parent="1">
          <mxGeometry x="590" y="225" width="120" height="60" as="geometry" />
        </mxCell>
        <mxCell id="zZhm9E_2jFgNcmyxIRVF-5" value="Book&lt;br&gt;" style="rounded=1;whiteSpace=wrap;html=1;fillColor=#dae8fc;strokeColor=#6c8ebf;" vertex="1" parent="1">
          <mxGeometry x="425" y="150" width="120" height="60" as="geometry" />
        </mxCell>
        <mxCell id="zZhm9E_2jFgNcmyxIRVF-6" value="id" style="ellipse;whiteSpace=wrap;html=1;" vertex="1" parent="1">
          <mxGeometry x="160" y="250" width="80" height="30" as="geometry" />
        </mxCell>
        <mxCell id="zZhm9E_2jFgNcmyxIRVF-7" value="imageURL" style="ellipse;whiteSpace=wrap;html=1;" vertex="1" parent="1">
          <mxGeometry x="160" y="290" width="80" height="30" as="geometry" />
        </mxCell>
        <mxCell id="zZhm9E_2jFgNcmyxIRVF-8" value="quantity" style="ellipse;whiteSpace=wrap;html=1;" vertex="1" parent="1">
          <mxGeometry x="160" y="330" width="80" height="30" as="geometry" />
        </mxCell>
        <mxCell id="zZhm9E_2jFgNcmyxIRVF-9" value="title" style="ellipse;whiteSpace=wrap;html=1;" vertex="1" parent="1">
          <mxGeometry x="225" y="220" width="80" height="30" as="geometry" />
        </mxCell>
        <mxCell id="zZhm9E_2jFgNcmyxIRVF-10" value="price" style="ellipse;whiteSpace=wrap;html=1;" vertex="1" parent="1">
          <mxGeometry x="160" y="370" width="80" height="30" as="geometry" />
        </mxCell>
        <mxCell id="zZhm9E_2jFgNcmyxIRVF-11" value="value" style="ellipse;whiteSpace=wrap;html=1;" vertex="1" parent="1">
          <mxGeometry x="300" y="190" width="80" height="30" as="geometry" />
        </mxCell>
        <mxCell id="zZhm9E_2jFgNcmyxIRVF-12" value="category" style="ellipse;whiteSpace=wrap;html=1;" vertex="1" parent="1">
          <mxGeometry x="230" y="400" width="80" height="30" as="geometry" />
        </mxCell>
        <mxCell id="zZhm9E_2jFgNcmyxIRVF-20" value="" style="endArrow=none;html=1;rounded=0;" edge="1" parent="1" source="zZhm9E_2jFgNcmyxIRVF-1" target="zZhm9E_2jFgNcmyxIRVF-11">
          <mxGeometry relative="1" as="geometry">
            <mxPoint x="340" y="360" as="sourcePoint" />
            <mxPoint x="500" y="360" as="targetPoint" />
          </mxGeometry>
        </mxCell>
        <mxCell id="zZhm9E_2jFgNcmyxIRVF-21" value="" style="endArrow=none;html=1;rounded=0;" edge="1" parent="1">
          <mxGeometry relative="1" as="geometry">
            <mxPoint x="340" y="360" as="sourcePoint" />
            <mxPoint x="500" y="360" as="targetPoint" />
          </mxGeometry>
        </mxCell>
      </root>
    </mxGraphModel>
  </diagram>
</mxfile>
